<?xml version="1.0" encoding="utf-8"?>
<!-- Generator: Adobe Illustrator 22.1.0, SVG Export Plug-In . SVG Version: 6.00 Build 0)  -->
<svg version="1.1" id="Capa_1" xmlns="http://www.w3.org/2000/svg" xmlns:xlink="http://www.w3.org/1999/xlink" x="0px" y="0px"
	 viewBox="0 0 306.7 308.7" style="enable-background:new 0 0 306.7 308.7;" xml:space="preserve">
<style type="text/css">
	.st0{fill:#FFFFFF;}
</style>
<path class="st0" d="M141,4.7c11.2-0.8,15.5-0.4,24,0c1.1,0.3,8.9,0.7,10,0.8c64.3,6.7,109.8,52.9,124.3,116.2
	c1.6,6.9,2.5,14,3.7,21c0,8,0,16,0,24c-0.3,1.4-0.8,2.9-0.9,4.3c-6.1,59.7-49.5,111.6-107.4,127.6c-9.7,2.7-19.8,4.1-29.7,6
	c-4.7,0-9.3,0-14,0c1.4-6.7,2.7-13.4,4.1-20c4.1-18.8,8.2-37.7,12.4-56.7c1.3,0,2.2-0.1,3.2,0c38.5,5.5,74.7-15.9,92.5-48.8
	c5.3-9.8,2.9-16.3-7.5-20.5c-15-6-30-11.9-44.8-18.1c-1.8-0.7-3.6-2.8-4.3-4.6c-4.7-14.1-13.4-24.4-27.6-29.4
	c-2.5-0.9-3.7-2-3.9-4.8c-0.5-8.5-1.4-16.9-2-25.4c-0.4-5.9-2.5-10.9-8.4-12.9c-5.8-2.1-10.3,0.7-14.1,4.9c-3.6,4-7.3,7.9-11.5,12.4
	c-0.8-2.9-1.5-4.9-2.1-7c-2-7-3.7-14.2-6.1-21.1c-3.2-9.1-12.9-11.6-19.5-5c-1.9,1.9-3.1,4.7-4,7.3c-7.1,19.4-14.1,38.8-21.1,58.2
	c-12.4,34.2-24.8,68.4-37.1,102.6c-1,2.7-2.2,3.9-5.2,3.9c-7.3,0.1-14.6,0.5-22,1c-2.8,0.2-4.3-0.6-5.2-3.3
	c-3.2-9.4-6.9-18.7-9.6-28.3c-2-7.3-2.8-15-4.1-22.5c0-8,0-16,0-24c0.3-1.4,0.8-2.9,0.9-4.3C10.1,78.5,53.4,26.8,111.3,10.7
	C121,8,127.3,6,141,4.7z"/>
</svg>
