<?xml version="1.0" encoding="utf-8"?>
<!-- Generator: Adobe Illustrator 23.0.0, SVG Export Plug-In . SVG Version: 6.00 Build 0)  -->
<svg version="1.1" id="Capa_1" xmlns="http://www.w3.org/2000/svg" xmlns:xlink="http://www.w3.org/1999/xlink" x="0px" y="0px"
	 viewBox="0 0 299.9 387.2" style="enable-background:new 0 0 299.9 387.2;" xml:space="preserve">
<style type="text/css">
	.st0{fill:#FFFFFF;}
</style>
<path class="st0" d="M137.9,0.5c11.2-0.8,15.5-0.4,24,0c1.1,0.3,8.9,0.7,10,0.8C236.2,8,281.7,54.2,296.2,117.5
	c1.6,6.9,2.5,14,3.7,21c0,8,0,16,0,24c-0.3,1.4-0.8,2.9-0.9,4.3c-6.1,59.7-49.5,111.6-107.4,127.6c-9.7,2.7-19.8,4.1-29.7,6
	c-4.7,0-9.3,0-14,0c1.4-6.7,2.7-13.4,4.1-20c4.1-18.8,8.2-37.7,12.4-56.7c1.3,0,2.2-0.1,3.2,0c38.5,5.5,74.7-15.9,92.5-48.8
	c5.3-9.8,2.9-16.3-7.5-20.5c-15-6-30-11.9-44.8-18.1c-1.8-0.7-3.6-2.8-4.3-4.6c-4.7-14.1-13.4-24.4-27.6-29.4
	c-2.5-0.9-3.7-2-3.9-4.8c-0.5-8.5-1.4-16.9-2-25.4c-0.4-5.9-2.5-10.9-8.4-12.9c-5.8-2.1-10.3,0.7-14.1,4.9c-3.6,4-7.3,7.9-11.5,12.4
	c-0.8-2.9-1.5-4.9-2.1-7c-2-7-3.7-14.2-6.1-21.1c-3.2-9.1-12.9-11.6-19.5-5c-1.9,1.9-3.1,4.7-4,7.3c-7.1,19.4-14.1,38.8-21.1,58.2
	c-12.4,34.2-24.8,68.4-37.1,102.6c-1,2.7-2.2,3.9-5.2,3.9c-7.3,0.1-14.6,0.5-22,1c-2.8,0.2-4.3-0.6-5.2-3.3
	c-3.2-9.4-6.9-18.7-9.6-28.3c-2-7.3-2.8-15-4.1-22.5c0-8,0-16,0-24c0.3-1.4,0.8-2.9,0.9-4.3C7,74.3,50.3,22.6,108.2,6.5
	C117.9,3.8,124.2,1.8,137.9,0.5z"/>
<g>
	<path class="st0" d="M78.7,371.1H60l-2.5,7.9H44.9L62,328.6h14.7L93.9,379H81.3L78.7,371.1z M75.3,360.3l-5.9-18.5l-5.9,18.5H75.3z
		"/>
	<path class="st0" d="M115.2,362.4h-5.5V379H98.2v-50.4h20.2c9.6,0,17.3,7.7,17.3,17.3c0,6.2-3.7,11.8-9.3,14.6l10.7,18.5h-12.4
		L115.2,362.4z M109.7,352.4h8.6c3.2,0,5.8-2.8,5.8-6.5c0-3.7-2.6-6.5-5.8-6.5h-8.6V352.4z"/>
	<path class="st0" d="M175.2,339.7h-13V379h-11.5v-39.3h-13v-11.1h37.4V339.7z"/>
	<path class="st0" d="M191.8,328.6V379h-11.5v-50.4H191.8z"/>
	<path class="st0" d="M198.3,353.8c0-14.8,11.7-26.2,26.2-26.2c14.5,0,26.2,11.4,26.2,26.2S238.9,380,224.5,380
		C210,380,198.3,368.6,198.3,353.8z M239.2,353.8c0-9-6.5-15-14.7-15c-8.2,0-14.7,6-14.7,15s6.5,15,14.7,15
		C232.7,368.8,239.2,362.8,239.2,353.8z"/>
</g>
</svg>
