<?xml version="1.0" encoding="utf-8"?>
<!-- Generator: Adobe Illustrator 23.0.0, SVG Export Plug-In . SVG Version: 6.00 Build 0)  -->
<svg version="1.0" id="Capa_1" xmlns="http://www.w3.org/2000/svg" xmlns:xlink="http://www.w3.org/1999/xlink" x="0px" y="0px"
	 viewBox="0 0 863 565" style="enable-background:new 0 0 863 565;" xml:space="preserve">
<style type="text/css">
	.st0{fill:#FFF;}
</style>
<g>
	<path class="st0" d="M864,462c-3.13,3.32-6.67,5.67-11.44,6.14c-1.03,0.1-2.82,2.6-2.6,3.66c1.44,7.08,3.29,14.07,5.08,21.07
		c1.07,4.18,2.28,8.33,3.4,12.5c0.17,0.64,0.56,1.49,0.3,1.93c-1.55,2.7-3.25,5.31-4.91,7.95c-1.97-1.99-4.91-3.66-5.7-6.05
		c-1.61-4.82-1.71-10.13-3.06-15.06c-1.66-6.08-3.78-12.05-6.12-17.91c-0.54-1.37-2.85-3.06-4.17-2.92
		c-8.56,0.94-17.11,2.17-25.56,3.81c-1.17,0.23-2.55,3.19-2.59,4.91c-0.32,16.98-0.27,33.97-0.58,50.96
		c-0.06,3.58-0.55,7.41-1.93,10.65c-1.96,4.58-5.68,4.74-8.1,0.46c-1.39-2.46-2.1-5.65-2.08-8.51c0.12-15.98,0.58-31.95,0.88-47.92
		c0.03-1.62-0.14-3.25-0.26-5.75c-3.89,0.36-7.44,1.08-10.95,0.89c-2.12-0.12-4.46-1.3-6.05-2.73c-0.47-0.42,0.82-4.13,2.15-4.93
		c3.22-1.94,6.83-3.62,10.49-4.36c4.11-0.83,4.68-2.89,4.73-6.57c0.21-13.81,0.35-27.64,1.48-41.39c0.43-5.17,2.73-10.59,5.51-15.07
		c3.98-6.41,8.66-6.59,13.98,0.18c5.99,7.63,10.44,16.51,15.15,25.08c2.87,5.23,5.45,10.74,7.24,16.41
		c1.78,5.63,5.51,6.93,10.23,5.66c6.85-1.83,11.45,0.99,15.46,5.93C864,461.33,864,461.67,864,462z M825.22,457.29
		c-4.03-8.96-7.74-17.22-11.46-25.47c-0.53,0.18-1.06,0.36-1.59,0.54c0,9.1,0,18.21,0,27.64
		C816.52,459.09,820.4,458.29,825.22,457.29z"/>
	<path class="st0" d="M112,1c2.66,1.52,5.54,2.78,7.87,4.71c0.82,0.68,0.98,3.51,0.26,4.45c-2.83,3.67-4.97,6.89-11.6,4.27
		c-5.42-2.14-12.72-0.02-19.09,0.91c-7.67,1.12-7.23,1.46-7.74,9.48c-0.72,11.24,4.07,21.03,7.16,31.31
		c6.34,21.16,12.8,42.29,18.54,63.62c2.31,8.58,2.26,17.48-3.86,25.2c-4.44,5.6-10.42,9.65-17.12,8.49
		c-21.26-3.68-41.22-10.49-54.8-29.07c-2.04-2.79-2.46-4.78,0.41-7.13c3.26-2.66,4.9-0.06,6.46,1.93
		C51.62,136,69.61,141.86,90.1,142.21c4.86,0.09,6.55-2.22,6.84-6.99c1.17-19.25-4.42-37.18-10.22-55.08
		c-4.87-15.03-10.04-29.95-14.88-44.99c-1.26-3.9-1.78-8.04-2.67-12.22c-8.96-1.99-17.24,1.89-25.73,3.7
		c-10.07,2.14-20.1,4.64-29.93,7.68C8.21,35.94,4.27,35.52,1,31c0-0.33,0-0.67,0-1c2.99-3.55,6.53-5.95,11.4-6.09
		c1.79-0.05,3.58-0.68,5.35-1.12c19.96-5,39.89-10.1,59.87-14.99C87.7,5.33,97.87,3.25,108,1C109.33,1,110.67,1,112,1z"/>
	<path class="st0" d="M507,566c-5.03-4.48-6.69-10.09-6.94-16.8c-0.76-20.72-5.52-40.81-10.56-60.83c-0.75-2.97-2.28-3.87-5.28-3.91
		c-12.44-0.17-23.87,3.97-35.28,8.09c-1.36,0.49-2.83,3.42-2.64,5.02c1.41,11.7,2.91,23.41,5.04,35c1.13,6.14,3.61,12.03,5.39,18.06
		c0.41,1.39,1.11,3.26,0.54,4.27c-1.15,2.05-2.91,4.82-4.75,5.09c-1.59,0.24-4.61-2.21-5.3-4.09c-2.17-5.89-3.86-12-5.14-18.16
		c-2.53-12.2-4.67-24.49-6.97-36.74c-0.06-0.33-0.01-0.72-0.17-0.98c-5.83-8.98-1.42-19.13-3.19-28.67
		c-1.65-8.91-1.23-18.22-1.48-27.36c-0.08-2.78,0.06-5.87,1.21-8.3c0.99-2.09,3.56-3.43,5.43-5.1c1.63,2.26,4.46,4.43,4.66,6.81
		c0.69,8.28,0.33,16.63,0.62,24.95c0.21,5.95,0.82,11.89,1.29,18.31c13.89,1.27,25.29-6.7,39.53-7.48
		c-1.53-7.57-2.87-14.31-4.27-21.03c-0.54-2.6-1.22-5.17-1.83-7.76c-0.99-4.24,0.77-8.07,4.54-8.74c4.01-0.71,5.5,3.44,6.25,6.95
		c1.18,5.51,1.95,11.11,3.34,16.56c5.69,22.37,11.62,44.67,17.28,67.04c1.1,4.33,1.59,8.84,2.05,13.3c0.35,3.41,0.99,6.37,3.99,8.64
		c0.98,0.74,1.7,3.23,1.2,4.26c-2.26,4.66-5,9.08-7.57,13.59C507.67,566,507.33,566,507,566z"/>
	<path class="st0" d="M119.56,283.22c18.14,4.23,21.25,15.96,20.88,28.55c-0.56,19.66-8.75,35.13-26.1,45.29
		c-4.72,2.76-9.14,6.03-13.72,9.04c-5.56,3.66-7.27,3.28-10.34-2.64c-8.72-16.79-14.08-34.72-18.22-53.12
		c-4.78-21.24-10.06-42.36-14.99-63.57c-0.58-2.51-1.52-3.91-4.2-3.78c-0.49,0.02-1.1-0.02-1.45-0.29
		c-3.21-2.44-6.37-4.95-9.55-7.43c2.21-2.68,3.91-6.45,6.75-7.78c4.46-2.08,9.83-3.87,14.57-3.4c12.88,1.29,25.74,3.35,38.41,6.02
		c10.16,2.15,18.16,8.12,22.92,17.66c3.95,7.91,1.67,15.46-1.46,23.06C121.49,274.68,120.77,278.86,119.56,283.22z M100.12,348.15
		c3.89-2.5,7.39-4.68,10.82-6.98c5.72-3.84,10.21-8.85,11.27-15.76c1.07-7.01,1.29-14.16,1.67-21.26c0.15-2.75-1.38-4.16-4.35-4.14
		c-10.76,0.09-21.52,0.03-33.03,0.03C89.32,317.05,93.24,332.78,100.12,348.15z M81.57,278.67c7.82-2.78,15.07-4.93,21.97-7.9
		c7.78-3.36,9.62-19.64,1.56-22.94c-10.56-4.33-21.66-4.74-33.18-6.42c1.8,6.7,3.37,12.43,4.87,18.19
		C78.28,265.33,79.68,271.1,81.57,278.67z"/>
	<path class="st0" d="M275.21,32.18c12.84,1.61,25.49,4.17,35.35,13.76c7.84,7.63,11.39,16.85,7.79,27.63
		c-2.71,8.11-0.81,14.05,5.49,19.87c11.82,10.92,22.96,22.58,34.48,33.84c2.25,2.2,2.49,4.05,0.29,6.33
		c-2.32,2.4-4.34,1.76-6.32-0.38c-5.53-5.97-10.84-12.17-16.64-17.87c-6.87-6.75-13.74-13.66-21.48-19.29
		c-2.63-1.91-8.34-1.23-11.92,0.14c-7.06,2.7-13.53,6.92-20.44,10.06c-2.86,1.3-4.39,2.7-4,5.86c0.83,6.75,1.48,13.53,2.46,20.26
		c2.35,16.12,4.99,32.21,7.12,48.36c0.24,1.84-1.77,4.29-3.34,5.85c-0.42,0.41-3.92-1.05-4.58-2.37c-1.81-3.64-3.49-7.56-4.13-11.54
		c-4.35-26.74-8.36-53.54-12.58-80.3c-2.49-15.76-5.23-31.48-7.74-47.23c-0.96-6.03,2.14-10.52,8.09-11.63
		C266.99,32.82,271,32.64,275.21,32.18z M278.71,90.88c9.15-2.75,16.55-6.89,21.6-14.42c4.62-6.87,4.2-17.06-1.35-20.87
		c-8.03-5.51-17.11-7.38-27.21-6.26c0.47,3.37,0.81,6.31,1.32,9.23C274.88,69.17,276.76,79.76,278.71,90.88z"/>
	<path class="st0" d="M313.11,320.66c1.91,7.1,4.17,15.58,6.46,24.05c4.9,18.13,9.93,36.22,14.56,54.41
		c0.44,1.72-1.26,4.44-2.73,5.95c-0.51,0.52-4.39-0.79-4.95-2.05c-2.33-5.28-4.32-10.78-5.82-16.36
		c-9.71-36.13-19.28-72.29-28.84-108.46c-1.53-5.79-2.77-11.65-4.2-17.46c-1.76-7.12-1.36-9.84,4.87-13.39
		c11-6.27,28.64-10.41,41.69-1.47c11.24,7.7,15.38,17.58,12.42,30.75c-1.18,5.24-0.88,9.75,4.46,13.91
		c8.47,6.6,15.62,14.87,23.66,22.07c4.93,4.42,10.37,8.28,15.74,12.18c4.47,3.24,5.07,5.33,2.06,8.67c-2.11,2.35-3.96,2.4-6.31,0.19
		c-11.39-10.67-22.77-21.35-34.38-31.78c-4.3-3.86-8.22-9.08-15.23-7.69c-1.85,0.37-3.79,0.89-5.39,1.86
		c-2.98,1.81-5.6,4.2-8.6,5.97C316,305.89,314.05,312.07,313.11,320.66z M303.29,258.21c2.82,11.82,5.3,22.23,7.9,33.14
		c7.5-4.18,13.75-8.73,18.28-15.29c5.69-8.24,1.52-17.9-8.44-18.76C315.51,256.83,309.87,257.82,303.29,258.21z"/>
	<path class="st0" d="M460.96,120.35c-1.77,25.17-16.34,43.55-38.37,53.78c-3.76,1.75-5.53-1-6.66-3.33
		c-2.83-5.8-5.6-11.71-7.5-17.86c-8.12-26.34-15.91-52.79-23.83-79.19c-1.04-3.48-1.91-6.85-5.8-8.72c-3.1-1.49-3.54-4.13-0.72-6.78
		c0.83-0.78,1.38-1.86,1.98-2.86c3.63-6.03,4.68-5.9,9.72-0.79c1.92,1.94,5.06,3.13,7.84,3.7c26.99,5.58,43.35,24.62,57.69,45.89
		C458.4,108.77,459.14,114.92,460.96,120.35z M402.97,75.48c-0.49,0.4-0.98,0.81-1.47,1.21c7.85,26,15.71,52,23.56,77.99
		c0.72,0.2,1.45,0.39,2.17,0.59c4-4.94,9.18-9.34,11.77-14.93c5.11-11.05,8.22-23.29-0.1-33.97c-6.98-8.96-15.57-16.76-23.98-24.49
		C411.7,78.92,407,77.57,402.97,75.48z"/>
	<path class="st0" d="M181.16,41.76c15.01,1.09,28.99,2.94,39.62,14.06c6.08,6.36,8.75,13.92,8.3,22.75
		c-0.94,18.6-10.42,31.42-26.54,39.82c-4.28,2.23-8.64,4.3-13.04,6.29c-8.07,3.65-16.1,3.6-24.02-0.57
		c-16.1-8.47-28.2-20.3-30.58-39.19c-0.63-4.96,0.1-11.15,2.65-15.27C147.64,53.33,162.51,43.78,181.16,41.76z M212.75,76.69
		c0.13-8.85-2.48-13.67-10.99-15.32c-9.01-1.74-18.5-2.79-27.57-1.93c-9.18,0.87-16.08,7.48-21.85,14.6
		c-0.95,1.17-1.27,3.05-1.39,4.64c-0.91,11.87,4.38,20.26,13.64,27.57c8.76,6.91,24.98,6.34,32.38-4.98
		c0.78-1.2,2.07-2.18,3.31-2.95C208.36,93.34,212.81,86.33,212.75,76.69z"/>
	<path class="st0" d="M559.47,502.75c-1.5-0.43-2.41-0.47-3.03-0.91c-2.46-1.72-4.84-3.57-7.25-5.37c2.21-1.99,4.59-3.82,6.55-6.02
		c1.23-1.38,2.68-3.37,2.59-5c-0.73-12.78-1.91-25.54-2.75-38.31c-0.29-4.45-0.71-9.06,0.09-13.38c1.42-7.63,8.84-10.2,13.9-4.45
		c6.42,7.3,11.95,15.47,17.23,23.67c4.31,6.69,7.55,14.05,11.6,20.92c0.91,1.54,3.13,2.49,4.95,3.24c2.39,1,5.27,1.08,7.41,2.4
		c3.12,1.93,4.11,4.46,0.6,7.55c-4.03,3.54-2.73,8.28-1.2,12.37c2.26,6.06,5.22,11.87,7.87,17.78c0.54,1.21,1.7,2.59,1.46,3.63
		c-0.51,2.18-1.47,4.45-2.9,6.11c-0.39,0.45-3.99-0.64-4.63-1.83c-3.01-5.51-5.52-11.3-8.16-17.01c-1.32-2.87-2.48-5.81-3.8-8.68
		c-3.18-6.91-5.45-8-13.11-6.44c-15.74,3.21-15.78,3.22-15.72,19.18c0.04,10.16,0.09,20.32,0.47,30.46
		c0.08,2.07,1.22,4.55,2.68,6.03c2.72,2.74,3.16,5.72,1.19,8.5c-1.5,2.12-4.72,5.16-6.2,4.7c-2.53-0.8-5.55-3.72-6.16-6.28
		c-1.8-7.55-3.08-15.33-3.54-23.08C559.03,522.74,559.47,512.89,559.47,502.75z M575.12,480.09c2.93-0.88,5.25-1.58,8.03-2.41
		c-2.77-5.17-5.32-9.94-7.87-14.71c-0.48,0.16-0.97,0.33-1.45,0.49C574.24,468.74,574.65,474.02,575.12,480.09z"/>
	<path class="st0" d="M204.04,378.8c-1.65-3.38-4.2-6.62-4.79-10.17c-1.86-11.29-3.16-22.69-4.29-34.09
		c-0.33-3.33-0.66-5.48-4.69-5.08c-1.22,0.12-2.8-0.27-3.72-1.03c-1.59-1.33-3.89-3.15-3.86-4.72c0.03-1.54,2.44-4.11,4.08-4.35
		c7.74-1.17,7.7-6.24,7.52-12.29c-0.42-14.14-0.34-28.29-0.44-42.43c-0.01-1.5-0.45-3.32,0.23-4.43c2.01-3.28,3.94-7.15,6.99-9.04
		c1.51-0.94,5.9,1.36,8.12,3.22c11.26,9.45,17.34,22.46,23.4,35.42c0.56,1.2,1.15,2.42,1.49,3.69c1.4,5.21,4.35,7.39,10.07,6.95
		c2.3-0.18,4.82,2.57,7.24,3.98c-1.29,1.84-2.35,3.9-3.9,5.48c-3.71,3.77-2.33,8.11-1.11,12.01c1.93,6.16,4.66,12.08,7.06,18.09
		c0.31,0.77,0.61,1.55,0.97,2.29c1.72,3.56,0.55,6.79-2.81,7.63c-1.65,0.41-5.04-2.05-6.05-4.02c-2.49-4.85-4.05-10.17-6-15.29
		c-0.71-1.86-1.48-3.7-2.2-5.56c-3-7.83-6.43-9.47-14.68-6.91c-3.33,1.03-6.52,2.71-9.91,3.27c-5.64,0.93-7.33,3.97-6.67,9.31
		c1.63,13.14,3.32,26.28,4.37,39.47c0.21,2.68-2.26,5.58-3.49,8.37C206,378.66,205.02,378.73,204.04,378.8z M221.52,302.21
		c-3.45-7.15-6.63-13.71-9.8-20.27c-0.28,0.21-0.57,0.41-0.85,0.62c0,7.52,0,15.03,0,23.13
		C214.67,304.45,217.74,303.45,221.52,302.21z"/>
	<path class="st0" d="M550.93,284.47c0.36,5.52,0.31,10.99,1.15,16.33c2.85,18.24,5.98,36.44,9.09,54.64
		c0.36,2.1,1.02,4.24,1.99,6.13c1.54,3.04,0.09,5.19-2.29,6.06c-1.37,0.5-4.54-0.54-5.07-1.71c-2.56-5.68-5.47-11.48-6.48-17.53
		c-4.32-25.93-8-51.96-11.93-77.95c-0.37-2.47-1.43-5.04-1.03-7.36c0.38-2.16,2.03-4.31,3.68-5.89c0.46-0.44,3.19,0.83,4.37,1.88
		c14.88,13.29,29.76,26.59,44.44,40.1c3.68,3.39,7.56,4.56,13.28,3.39c-0.43-4.91-0.75-9.96-1.35-14.98
		c-2.71-22.6-5.51-45.2-8.25-67.79c-0.1-0.81-0.24-1.89,0.18-2.44c1.71-2.27,3.63-4.38,5.47-6.55c1.75,1.85,3.97,3.46,5.12,5.64
		c1.03,1.94,1.11,4.5,1.2,6.8c1.16,28.83,4.11,57.4,11.75,85.34c0.61,2.25,1.05,4.56,1.9,6.72c1.83,4.67-0.86,7.59-3.82,10.39
		c-2.94,2.78-6,0.89-8.15-0.81c-7.55-5.96-14.88-12.2-22.06-18.61c-6.82-6.09-13.42-12.43-19.97-18.82
		C560.52,283.91,556.39,283.49,550.93,284.47z"/>
	<path class="st0" d="M437.59,299.29c4.66-0.56,9.1-0.93,13.48-1.65c10.29-1.7,20.53-3.68,30.84-5.24c1.22-0.19,3.2,1.19,3.95,2.39
		c0.7,1.13,0.81,3.33,0.15,4.45c-2.11,3.58-5.26,5.53-9.7,6c-10.06,1.05-20.07,2.64-30.09,4.02c-3.35,0.46-5.01,2.19-4.43,5.76
		c1.09,6.7,1.92,13.45,3.27,20.1c0.23,1.12,2.54,2.66,3.79,2.57c5.1-0.38,10.18-1.17,15.21-2.09c5.72-1.04,11.34-2.75,17.09-3.37
		c1.82-0.2,4.32,1.83,5.67,3.52c0.51,0.64-0.91,3.85-2.21,4.69c-2.45,1.58-5.38,2.6-8.25,3.28c-8.56,2.03-17.18,3.82-25.78,5.64
		c-7.33,1.56-12.04-0.94-14.23-8.07c-1.75-5.7-2.97-11.57-4.26-17.39c-0.89-4.04-1.21-8.21-5.23-10.82
		c-0.84-0.54-1.52-2.44-1.24-3.42c2.56-8.85-0.31-17.12-2.51-25.44c-1.61-6.1-3.57-12.1-5.35-18.16
		c-1.72-5.87,0.11-11.05,6.04-12.73c11.46-3.25,23.19-5.52,34.81-8.17c1.29-0.29,2.9-0.94,3.89-0.46c2.09,1.01,4.37,2.35,5.54,4.21
		c0.47,0.75-1.39,4.13-2.83,4.71c-3.79,1.52-7.9,2.37-11.95,3.12c-6.53,1.21-13.1,2.21-19.68,3.15c-3.51,0.5-5.05,2.31-4.39,5.75
		c0.99,5.19,1.97,10.38,3.26,15.5C433.89,286.94,435.68,292.65,437.59,299.29z"/>
	<path class="st0" d="M704.78,472.33c0-15,0-29.96-0.01-44.93c0-0.82-0.52-1.91-0.16-2.43c1.62-2.34,3.48-4.51,5.25-6.74
		c1.77,1.82,4.63,3.4,5.08,5.5c1.15,5.31,1.68,10.86,1.66,16.3c-0.15,37.62-0.48,75.23-0.83,112.85c-0.02,2.11-0.24,4.57-1.33,6.24
		c-1.23,1.88-3.56,3.03-5.41,4.5c-1.55-2.31-4.39-4.59-4.45-6.94c-0.37-15.31-0.55-30.65,0.04-45.95
		c0.4-10.53-1.73-18.48-9.78-26.76c-15.11-15.55-27.92-33.33-41.79-50.09c-2.27-2.74-3.19-4.96,0.12-7.48
		c3.58-2.72,5.11,0.32,6.78,2.41c10.15,12.74,20.3,25.48,30.25,38.38C693.88,471.99,698.04,474.65,704.78,472.33z"/>
	<path class="st0" d="M696.37,257.27c-1.31-14.61-2.28-28.01-3.88-41.35c-0.4-3.34-0.15-6.21,2.75-6.9c1.68-0.4,4.97,1.69,5.93,3.5
		c1.82,3.44,3.21,7.43,3.51,11.29c1.39,17.91,2.76,35.84,3.35,53.78c0.68,20.64,0.53,41.3,0.74,61.95c0,0.33,0.02,0.67,0,1
		c-0.15,3.75-3.98,9.23-5.87,8.11c-2.53-1.51-4.32-4.5-5.98-7.13c-0.69-1.09-0.27-2.9-0.28-4.39c-0.07-19.65-0.1-39.3-0.28-58.95
		c-0.01-1.23-0.91-2.86-1.92-3.62c-9.68-7.29-19.61-14.27-29.19-21.69c-5.89-4.56-11.42-9.6-16.87-14.68
		c-2.72-2.54-2.06-5.23,0.89-7.46c3.08-2.33,4.26,0.5,6.11,1.98c9.8,7.84,19.49,15.84,29.67,23.18
		C687.35,257.55,691.4,256.76,696.37,257.27z"/>
	<path class="st0" d="M521.84,53.86c1.94,10.22,3.41,19.86,5.64,29.32c2.56,10.83,5.63,21.55,8.88,32.2
		c0.49,1.6,3.04,3.52,4.74,3.63c4.78,0.31,9.68,0.13,14.42-0.58c4.32-0.65,7.34,1.2,8.15,4.68c0.93,4.01-2.92,5.85-6.13,6.47
		c-4.54,0.87-9.27,0.72-13.9,1.22c-12.53,1.34-25.04,2.79-37.57,4.18c-1.15,0.13-2.62,0.61-3.4,0.1c-1.99-1.31-3.68-3.1-5.49-4.69
		c1.91-1.87,3.53-4.73,5.8-5.43c5.69-1.76,11.64-2.81,17.56-3.61c3.36-0.46,4.99-1.7,4.26-5.01c-1.87-8.56-3.89-17.09-5.87-25.63
		c-2.49-10.68-5.14-21.33-7.42-32.06c-0.59-2.79-1.44-3.91-4.42-3.93c-5.98-0.03-11.97-0.45-17.95-0.81
		c-3.75-0.23-7.03-1.73-7.99-5.59c-0.65-2.6,4.66-6.07,8.69-6c7.82,0.15,15.65,0.71,23.46,0.43c7.96-0.28,15.91-1.13,23.81-2.21
		c4.13-0.56,7.06,1.37,7.67,4.5c0.3,1.56-3.13,4.96-5.45,5.69C534.34,52.3,528.96,52.68,521.84,53.86z"/>
	<path class="st0" d="M771.65,249.2c-1.7,7.48,3.31,12.01,8.5,15.92c6.75,5.09,14,9.5,21.07,14.16
		c7.52,4.96,13.27,11.33,17.22,19.54c4.63,9.62-0.68,18.51-7.15,21.09c-5.86,2.34-12.57,4.36-18.68,3.83
		c-8.65-0.75-17.15-3.74-25.55-6.28c-2.06-0.62-3.9-3.02-5.03-5.05c-0.36-0.65,1.61-3.19,3.01-4.04c1.14-0.69,3.21-0.6,4.55-0.07
		c11.14,4.36,22.69,4.59,34.41,3.97c3.61-0.19,4.67-1.57,4.97-5.12c0.8-9.71-4.36-15.59-11.92-20.18
		c-11.36-6.9-22.85-13.53-31.12-24.49c-7.56-10.01-7.83-17.96-0.07-27.94c11.47-14.73,26.92-17.01,40.19-5.59
		c2.81,2.42,4.92,5.83,6.8,9.11c2.07,3.61,0.72,8.3-2.58,8.51c-1.93,0.13-4.99-2.37-5.89-4.42c-1.84-4.17-3.59-8.55-8.53-8.67
		c-6.59-0.16-13.59-2.38-19.71,2.49C771.78,239.42,771.09,243.91,771.65,249.2z"/>
</g>
</svg>