<?xml version="1.0" encoding="utf-8"?>
<!-- Generator: Adobe Illustrator 23.0.0, SVG Export Plug-In . SVG Version: 6.00 Build 0)  -->
<svg version="1.1" id="Capa_1" xmlns="http://www.w3.org/2000/svg" xmlns:xlink="http://www.w3.org/1999/xlink" x="0px" y="0px"
	 viewBox="0 0 498 498" style="enable-background:new 0 0 498 498;" xml:space="preserve">
<style type="text/css">
	.st0{fill:#FFFFFF;}
	.st1{fill:none;stroke:#FFFFFF;stroke-width:20;stroke-linejoin:round;stroke-miterlimit:10;}
</style>
<image style="display:none;overflow:visible;" width="196" height="196" xlink:href="CNLogo.png"  transform="matrix(2.49 0 0 2.49 4.98 4.98)">
</image>
<path class="st0" d="M164.2,174.2c-2.2-3.7-10.2-5.6-24.2-5.6c-18.3,0-32.2,6.2-41.6,18.6c-9.4,12.4-14.2,30.3-14.2,53.7
	c0,48.6,18.2,72.9,54.6,72.9c0.6,0,3.2,0,7.8,0c4.6,0,9-0.6,13.1-1.9c4.1-1.3,6.6-2.6,7.4-4c0.8-1.4,1.2-3.5,1.2-6.5v-23.6l30.1,2.1
	v51c-15.3,8.1-34.8,12.1-58.4,12.1c-30.1,0-53.1-8.5-68.9-25.4c-15.8-16.9-23.7-42.1-23.7-75.5c0-18.5,2.7-34.6,8-48.4
	c5.3-13.8,12.5-24.5,21.5-32.2c17.7-14.8,38.7-22.1,63.1-22.1c19.7,0,38.2,4,55.5,12.1v50.1l-30.1,2.1v-23
	C165.4,177.7,165,175.5,164.2,174.2z"/>
<circle class="st1" cx="249" cy="249" r="239"/>
<polygon class="st0" points="336,403 399.2,388.3 349.7,338.8 "/>
<g>
	<g>
		<path class="st0" d="M331,390H90c2.7,3,5.4,5.9,8.3,8.8c1.4,1.4,2.9,2.8,4.4,4.2H331V390z"/>
		<path class="st0" d="M331,390H90c2.7,3,5.4,5.9,8.3,8.8c1.4,1.4,2.9,2.8,4.4,4.2H331V390L331,390z"/>
	</g>
</g>
<g>
	<path class="st0" d="M274.7,201.6h0.6l72.4,116.7l47.4-47.4v-94.2c0-5.7,2.4-8.7,7.1-9.1l10.6-0.9v-23.9h-72V168l19.5,0.9v109.4
		h-0.6l-83.5-135.4h-53.1V168l16.8,0.9V306c0,5.1-2.6,7.9-7.7,8.3l-10.6,0.9v23.9h72.3V314l-19.2-0.9V201.6z"/>
</g>
<g>
	<g>
		<path class="st0" d="M461,248.5c0-7-0.3-14-1-21L353.2,334.3l49.5,49.5l31-31c3.9-7,7.5-14.2,10.6-21.6
			C455.4,305,461,277.2,461,248.5z"/>
	</g>
</g>
</svg>
