<?xml version="1.0" encoding="utf-8"?>
<!-- Generator: Adobe Illustrator 23.0.0, SVG Export Plug-In . SVG Version: 6.00 Build 0)  -->
<svg version="1.0" id="Capa_1" xmlns="http://www.w3.org/2000/svg" xmlns:xlink="http://www.w3.org/1999/xlink" x="0px" y="0px"
	 viewBox="0 0 182.9 45.65" style="enable-background:new 0 0 182.9 45.65;" xml:space="preserve">
<style type="text/css">
	.st0{fill:#FFFFFF;}
</style>
<g>
	<path class="st0" d="M17.88,11.21c-0.3-0.52-1.42-0.78-3.36-0.78c-2.54,0-4.47,0.86-5.78,2.58c-1.31,1.72-1.97,4.21-1.97,7.46
		c0,6.75,2.53,10.13,7.58,10.13c0.08,0,0.44,0,1.09,0c0.64,0,1.25-0.09,1.82-0.27c0.57-0.18,0.92-0.36,1.02-0.55
		c0.11-0.19,0.16-0.49,0.16-0.9V25.6l4.18,0.29v7.09c-2.13,1.12-4.84,1.68-8.12,1.68c-4.18,0-7.37-1.18-9.57-3.53
		c-2.2-2.35-3.3-5.85-3.3-10.5c0-2.57,0.37-4.81,1.11-6.72c0.74-1.91,1.74-3.4,2.99-4.47c2.46-2.05,5.38-3.07,8.77-3.07
		c2.73,0,5.3,0.56,7.71,1.68v6.97l-4.18,0.29v-3.2C18.04,11.71,17.98,11.4,17.88,11.21z"/>
	<path class="st0" d="M33.37,4.9v25.83l2.34,0.12v3.28h-9.76v-3.12l1.35-0.12c0.79-0.08,1.19-0.52,1.19-1.31V9.37
		c0-0.6-0.34-0.93-1.02-0.98L26.03,8.3V4.9H33.37z"/>
	<path class="st0" d="M48.54,12.89c2.05,0,3.68,0.5,4.88,1.5c1.2,1,1.8,2.4,1.8,4.2c0,1.2-0.26,2.26-0.78,3.18
		c-0.52,0.92-1.16,1.63-1.93,2.15c-0.77,0.52-1.7,0.94-2.79,1.27c-1.83,0.55-3.9,0.82-6.19,0.82c0.08,1.45,0.53,2.62,1.35,3.51
		c0.82,0.89,2.08,1.33,3.77,1.33c1.69,0,3.39-0.6,5.08-1.8l1.56,3.32c-0.55,0.49-1.47,1-2.77,1.52c-1.3,0.52-2.78,0.78-4.45,0.78
		c-3.33,0-5.78-0.92-7.34-2.77c-1.56-1.85-2.34-4.38-2.34-7.61c0-3.23,0.89-5.93,2.67-8.12C42.86,13.99,45.34,12.89,48.54,12.89z
		 M46.68,22.26c1-0.18,1.92-0.57,2.77-1.19c0.85-0.61,1.27-1.35,1.27-2.19c0-1.67-0.82-2.5-2.46-2.5c-1.53,0-2.71,0.61-3.53,1.82
		c-0.82,1.22-1.27,2.67-1.35,4.37C44.58,22.54,45.68,22.44,46.68,22.26z"/>
	<path class="st0" d="M76.5,14.33v15.25c0,0.44,0.07,0.74,0.23,0.9c0.15,0.16,0.42,0.26,0.8,0.29l1.31,0.08v3.28h-6.52v-2.38
		l-0.12-0.04c-1.37,1.97-3.24,2.95-5.62,2.95c-2.79,0-4.85-0.89-6.19-2.67c-1.34-1.78-2.01-4.21-2.01-7.3c0-3.72,0.9-6.61,2.71-8.69
		c1.8-2.08,4.51-3.12,8.12-3.12C71.53,12.89,73.96,13.37,76.5,14.33z M71.75,27.61V16.99c-0.77-0.35-1.82-0.53-3.16-0.53
		c-1.83,0-3.16,0.74-3.98,2.21c-0.82,1.48-1.23,3.43-1.23,5.86c0,4.43,1.42,6.64,4.26,6.64c1.2,0,2.19-0.36,2.95-1.09
		C71.37,29.37,71.75,28.54,71.75,27.61z"/>
	<path class="st0" d="M81.3,34.13v-3.32l1.48-0.12c0.71-0.05,1.07-0.44,1.07-1.15V10.47l-2.34-0.12V6.87h7.38l11.6,18.82h0.08V10.47
		l-2.71-0.12V6.87h10v3.32l-1.48,0.12c-0.66,0.05-0.98,0.48-0.98,1.27v22.55h-4.8L88.76,15.03h-0.08v15.5l2.67,0.12v3.48H81.3z"/>
	<path class="st0" d="M109.43,23.8c0-2.02,0.3-3.78,0.9-5.27c0.6-1.49,1.41-2.63,2.42-3.42c1.94-1.48,4.09-2.21,6.44-2.21
		c1.64,0,3.03,0.27,4.16,0.8c1.13,0.53,2.02,1.15,2.67,1.85c0.64,0.7,1.19,1.71,1.64,3.03c0.45,1.33,0.68,2.89,0.68,4.69
		c0,3.77-0.92,6.63-2.75,8.57c-1.83,1.94-4.18,2.91-7.03,2.91c-2.86,0-5.09-0.92-6.7-2.77C110.23,30.13,109.43,27.41,109.43,23.8z
		 M118.86,31.14c2.98,0,4.47-2.4,4.47-7.22c0-2.43-0.33-4.28-1-5.54c-0.67-1.26-1.79-1.89-3.36-1.89c-1.57,0-2.73,0.6-3.46,1.8
		c-0.74,1.2-1.11,2.84-1.11,4.92c0,3.85,0.71,6.27,2.13,7.26C117.15,30.92,117.93,31.14,118.86,31.14z"/>
	<path class="st0" d="M135.01,9.16h2.67v4.35h5.45l-0.41,3.44h-5.04v10.78c0,1.2,0.22,2.04,0.66,2.52c0.44,0.48,1.11,0.72,2.03,0.72
		c0.92,0,1.84-0.29,2.77-0.86l1.23,3.16c-1.37,0.96-3.1,1.44-5.21,1.44c-1.23,0-2.27-0.16-3.12-0.47c-0.85-0.31-1.48-0.66-1.89-1.05
		s-0.72-0.94-0.94-1.68c-0.22-0.74-0.34-1.32-0.37-1.74c-0.03-0.42-0.04-1.05-0.04-1.87V16.95h-2.91l0.41-2.99
		c1.28-0.11,2.25-0.57,2.91-1.37C133.86,11.78,134.46,10.64,135.01,9.16z"/>
	<path class="st0" d="M156.21,12.89c2.05,0,3.68,0.5,4.88,1.5c1.2,1,1.8,2.4,1.8,4.2c0,1.2-0.26,2.26-0.78,3.18
		c-0.52,0.92-1.16,1.63-1.93,2.15c-0.77,0.52-1.7,0.94-2.79,1.27c-1.83,0.55-3.9,0.82-6.19,0.82c0.08,1.45,0.53,2.62,1.35,3.51
		c0.82,0.89,2.08,1.33,3.77,1.33c1.69,0,3.39-0.6,5.08-1.8l1.56,3.32c-0.55,0.49-1.47,1-2.77,1.52c-1.3,0.52-2.78,0.78-4.45,0.78
		c-3.33,0-5.78-0.92-7.34-2.77c-1.56-1.85-2.34-4.38-2.34-7.61c0-3.23,0.89-5.93,2.67-8.12C150.52,13.99,153.01,12.89,156.21,12.89z
		 M154.34,22.26c1-0.18,1.92-0.57,2.77-1.19c0.85-0.61,1.27-1.35,1.27-2.19c0-1.67-0.82-2.5-2.46-2.5c-1.53,0-2.71,0.61-3.53,1.82
		c-0.82,1.22-1.27,2.67-1.35,4.37C152.24,22.54,153.34,22.44,154.34,22.26z"/>
	<path class="st0" d="M176.5,16.63c-0.66-0.25-1.45-0.37-2.38-0.37s-1.67,0.21-2.23,0.64c-0.56,0.42-0.84,0.94-0.84,1.56
		c0,0.62,0.1,1.09,0.31,1.44c0.21,0.34,0.53,0.64,0.96,0.88c0.68,0.36,1.5,0.66,2.46,0.92s1.67,0.46,2.13,0.61
		c0.46,0.15,1.04,0.4,1.74,0.76c0.7,0.36,1.22,0.74,1.58,1.15c0.96,1.01,1.44,2.31,1.44,3.9c0,2.05-0.75,3.66-2.23,4.82
		c-1.49,1.16-3.38,1.74-5.68,1.74c-3.33,0-5.85-0.42-7.54-1.27v-5.7l3.69-0.29v1.97c0,1.2,1.15,1.8,3.45,1.8
		c2.29,0,3.44-0.83,3.44-2.5c0-0.6-0.2-1.09-0.6-1.48c-0.4-0.38-0.79-0.64-1.17-0.78c-0.38-0.14-0.84-0.27-1.37-0.41
		c-0.53-0.14-1.05-0.27-1.56-0.41s-1.05-0.32-1.64-0.55c-0.59-0.23-1.24-0.57-1.95-1c-1.39-0.9-2.09-2.41-2.09-4.53
		c0-2.12,0.75-3.75,2.26-4.9c1.5-1.15,3.4-1.72,5.68-1.72c2.28,0,4.54,0.55,6.79,1.64v4.92l-3.69,0.29v-1.72
		C177.45,17.34,177.13,16.87,176.5,16.63z"/>
</g>
</svg>
