<?xml version="1.0" encoding="utf-8"?>
<!-- Generator: Adobe Illustrator 23.0.0, SVG Export Plug-In . SVG Version: 6.00 Build 0)  -->
<svg version="1.0" id="Capa_1" xmlns="http://www.w3.org/2000/svg" xmlns:xlink="http://www.w3.org/1999/xlink" x="0px" y="0px"
	 viewBox="0 0 23.26 22.15" style="enable-background:new 0 0 23.26 22.15;" xml:space="preserve">
<style type="text/css">
	.st0{fill:#FFFFFF;}
</style>
<g>
	<path class="st0" d="M0.03,20.16C3.91,13.44,7.77,6.75,11.65,0.02c3.88,6.71,7.75,13.4,11.64,20.13c-0.2,0-0.37,0-0.54,0
		c-1.23,0-2.47,0-3.7,0c-0.14,0-0.21-0.05-0.27-0.16c-2.35-4.07-4.71-8.14-7.06-12.2c-0.03-0.06-0.07-0.11-0.12-0.2
		c-0.15,0.26-0.29,0.49-0.43,0.73C8.96,12.16,6.74,16,4.54,19.85c-0.14,0.25-0.29,0.32-0.56,0.32c-1.23-0.02-2.47-0.01-3.7-0.01
		C0.21,20.16,0.14,20.16,0.03,20.16z"/>
	<path class="st0" d="M5.96,22.16c1.88-3.27,3.76-6.51,5.65-9.79c1.9,3.28,3.78,6.53,5.67,9.79C13.5,22.16,9.75,22.16,5.96,22.16z"
		/>
</g>
</svg>
