<?xml version="1.0" encoding="utf-8"?>
<!-- Generator: Adobe Illustrator 23.0.0, SVG Export Plug-In . SVG Version: 6.00 Build 0)  -->
<svg version="1.1" id="Capa_1" xmlns="http://www.w3.org/2000/svg" xmlns:xlink="http://www.w3.org/1999/xlink" x="0px" y="0px"
	 viewBox="0 0 23.3 22.1" style="enable-background:new 0 0 23.3 22.1;" xml:space="preserve">
<style type="text/css">
	.st0{fill:#FFFFFF;}
</style>
<g>
	<path class="st0" d="M0,20.2C3.9,13.4,7.8,6.8,11.6,0c3.9,6.7,7.8,13.4,11.6,20.1c-0.2,0-0.4,0-0.5,0c-1.2,0-2.5,0-3.7,0
		c-0.1,0-0.2,0-0.3-0.2c-2.4-4.1-4.7-8.1-7.1-12.2c0-0.1-0.1-0.1-0.1-0.2c-0.1,0.3-0.3,0.5-0.4,0.7C9,12.2,6.7,16,4.5,19.9
		c-0.1,0.3-0.3,0.3-0.6,0.3c-1.2,0-2.5,0-3.7,0C0.2,20.2,0.1,20.2,0,20.2z"/>
</g>
</svg>
