<?xml version="1.0" encoding="utf-8"?>
<!-- Generator: Adobe Illustrator 23.0.0, SVG Export Plug-In . SVG Version: 6.00 Build 0)  -->
<svg version="1.0" id="Capa_1" xmlns="http://www.w3.org/2000/svg" xmlns:xlink="http://www.w3.org/1999/xlink" x="0px" y="0px"
	 viewBox="0 0 211.68 64.48" style="enable-background:new 0 0 211.68 64.48;" xml:space="preserve">
<style type="text/css">
	.st0{fill:#FFFFFF;}
</style>
<g>
	<path class="st0" d="M211.68,0c0,21.47,0,42.93,0,64.48c-37.68,0-75.28,0-112.96,0c0-3.52,0-7.05,0-10.7c1.03,0,2.02,0.01,3.01,0
		c4.35-0.07,8.73,0.09,13.05-0.29c8.75-0.77,15.11-6.95,16.5-15.61c0.7-4.38,0.75-8.77-0.33-13.08
		c-1.89-7.55-6.81-12.04-14.38-13.47c-2.88-0.54-5.87-0.57-8.82-0.67c-2.99-0.11-5.98-0.02-9.12-0.02c0-3.62,0-7.13,0-10.63
		C136.32,0,174,0,211.68,0z M201.02,10.73c-9.03,0-17.99,0-26.94,0c0,14.39,0,28.69,0,42.97c9.23,0,18.38,0,27.54,0
		c0-2.73,0-5.39,0-8.17c-5.94,0-11.8,0-17.71,0c0-3.3,0-6.48,0-9.81c4.88,0,9.69,0,14.49,0c0-2.81,0-5.47,0-8.24
		c-4.87,0-9.66,0-14.47,0c0-2.89,0-5.66,0-8.56c5.74,0,11.4,0,17.1,0C201.02,16.13,201.02,13.47,201.02,10.73z M149.76,10.73
		c-3.37,0-6.58,0-9.78,0c0,14.39,0,28.68,0,42.94c8.97,0,17.85,0,26.7,0c0-2.76,0-5.41,0-8.18c-5.68,0-11.26,0-16.92,0
		C149.76,33.87,149.76,22.37,149.76,10.73z"/>
	<path class="st0" d="M0,10.8c6.67,0.08,13.35,0.12,20.02,0.27c1.25,0.03,2.53,0.41,3.73,0.81c5.27,1.74,8.2,5.75,8.37,11.46
		c0.15,5.16-1.16,9.96-7.6,13.26c3.2,5.65,6.39,11.29,9.66,17.06c-0.42,0.04-0.71,0.1-1,0.1c-2.96,0.01-5.92-0.03-8.88,0.02
		c-0.76,0.01-1.13-0.26-1.46-0.9c-2.38-4.53-4.81-9.02-7.16-13.56c-0.44-0.85-0.93-1.14-1.85-1.08c-1.31,0.08-2.62,0.02-4.04,0.02
		c0,5.21,0,10.28,0,15.51c-3.33,0-6.56,0-9.78,0C0,39.44,0,25.12,0,10.8z M9.82,30.45c2.29,0,4.45,0.14,6.58-0.05
		c1.27-0.12,2.6-0.56,3.7-1.2c2.34-1.38,2.67-3.73,2.42-6.19c-0.21-2.04-1.4-3.33-3.34-3.94c-3.08-0.96-6.22-0.48-9.36-0.58
		C9.82,22.55,9.82,26.45,9.82,30.45z"/>
	<path class="st0" d="M60.34,10.88c0.13-0.05,0.2-0.1,0.27-0.1c5.47,0.08,10.97-0.15,16.41,0.32c9.74,0.85,16.13,7.74,16.84,17.49
		c0.26,3.61,0.22,7.19-0.66,10.72c-2.03,8.16-7.77,13.41-16.13,14.13c-5.52,0.48-11.09,0.32-16.73,0.45
		C60.34,39.44,60.34,25.2,60.34,10.88z"/>
	<path class="st0" d="M40.66,10.8c3.2,0,6.34,0,9.58,0c0,14.28,0,28.52,0,42.86c-3.15,0-6.32,0-9.58,0
		C40.66,39.44,40.66,25.2,40.66,10.8z"/>
</g>
</svg>
