<?xml version="1.0" encoding="utf-8"?>
<!-- Generator: Adobe Illustrator 23.0.0, SVG Export Plug-In . SVG Version: 6.00 Build 0)  -->
<svg version="1.1" id="Capa_1" xmlns="http://www.w3.org/2000/svg" xmlns:xlink="http://www.w3.org/1999/xlink" x="0px" y="0px"
	 viewBox="0 0 255 64.5" style="enable-background:new 0 0 255 64.5;" xml:space="preserve">
<style type="text/css">
	.st0{fill:#FFFFFF;}
</style>
<g>
	<path id="DLE" class="st0" d="M233.4,0c0,21.5,0,42.9,0,64.5c-37.7,0-75.3,0-113,0c0-3.5,0-7,0-10.7c1,0,2,0,3,0
		c4.3-0.1,8.7,0.1,13.1-0.3c8.8-0.8,15.1-7,16.5-15.6c0.7-4.4,0.8-8.8-0.3-13.1c-1.9-7.6-6.8-12-14.4-13.5c-2.9-0.5-5.9-0.6-8.8-0.7
		c-3-0.1-6,0-9.1,0c0-3.6,0-7.1,0-10.6C158,0,195.7,0,233.4,0z M222.7,10.7c-9,0-18,0-26.9,0c0,14.4,0,28.7,0,43
		c9.2,0,18.4,0,27.5,0c0-2.7,0-5.4,0-8.2c-5.9,0-11.8,0-17.7,0c0-3.3,0-6.5,0-9.8c4.9,0,9.7,0,14.5,0c0-2.8,0-5.5,0-8.2
		c-4.9,0-9.7,0-14.5,0c0-2.9,0-5.7,0-8.6c5.7,0,11.4,0,17.1,0C222.7,16.1,222.7,13.5,222.7,10.7z M171.4,10.7c-3.4,0-6.6,0-9.8,0
		c0,14.4,0,28.7,0,42.9c9,0,17.9,0,26.7,0c0-2.8,0-5.4,0-8.2c-5.7,0-11.3,0-16.9,0C171.4,33.9,171.4,22.4,171.4,10.7z"/>
	<g id="RID">
		<path class="st0" d="M21.7,10.8c6.7,0.1,13.4,0.1,20,0.3c1.3,0,2.5,0.4,3.7,0.8c5.3,1.7,8.2,5.8,8.4,11.5c0.2,5.2-1.2,10-7.6,13.3
			c3.2,5.7,6.4,11.3,9.7,17.1c-0.4,0-0.7,0.1-1,0.1c-3,0-5.9,0-8.9,0c-0.8,0-1.1-0.3-1.5-0.9c-2.4-4.5-4.8-9-7.2-13.6
			c-0.4-0.8-0.9-1.1-1.8-1.1c-1.3,0.1-2.6,0-4,0c0,5.2,0,10.3,0,15.5c-3.3,0-6.6,0-9.8,0C21.7,39.4,21.7,25.1,21.7,10.8z M31.5,30.5
			c2.3,0,4.5,0.1,6.6,0c1.3-0.1,2.6-0.6,3.7-1.2c2.3-1.4,2.7-3.7,2.4-6.2c-0.2-2-1.4-3.3-3.3-3.9c-3.1-1-6.2-0.5-9.4-0.6
			C31.5,22.5,31.5,26.5,31.5,30.5z"/>
		<path class="st0" d="M82,10.9c0.1-0.1,0.2-0.1,0.3-0.1c5.5,0.1,11-0.1,16.4,0.3c9.7,0.9,16.1,7.7,16.8,17.5
			c0.3,3.6,0.2,7.2-0.7,10.7c-2,8.2-7.8,13.4-16.1,14.1c-5.5,0.5-11.1,0.3-16.7,0.5C82,39.4,82,25.2,82,10.9z"/>
		<path class="st0" d="M62.3,10.8c3.2,0,6.3,0,9.6,0c0,14.3,0,28.5,0,42.9c-3.2,0-6.3,0-9.6,0C62.3,39.4,62.3,25.2,62.3,10.8z"/>
	</g>
</g>
</svg>
